<svg xmlns="http://www.w3.org/2000/svg" xml:space="preserve" viewBox="0 0 512 512"><path d="M473.65 88.28H38.35A38.34 38.34 0 0 0 0 126.62v258.76a38.34 38.34 0 0 0 38.34 38.34h435.31A38.34 38.34 0 0 0 512 385.38V126.62a38.34 38.34 0 0 0-38.35-38.34z" style="fill:#f5f5f5"/><path d="M2.1 114.08H509.9a38.35 38.35 0 0 0-36.23-25.8H38.34a38.35 38.35 0 0 0-36.24 25.8zM0 191.49h512v25.8H0zM0 139.88h512v25.8H0zM0 260.07a8.83 8.83 0 0 0 8.83 8.83H512v-25.8H0v16.97zM0 346.32h512v25.8H0zM509.9 397.92H2.1a38.35 38.35 0 0 0 36.24 25.8h435.31a38.35 38.35 0 0 0 36.24-25.8zM0 294.71h512v25.8H0z" style="fill:#ff4b55"/><path d="M8.83 268.9h220.69a8.83 8.83 0 0 0 8.83-8.83V97.1a8.83 8.83 0 0 0-8.83-8.82H38.34A38.35 38.35 0 0 0 0 126.62v133.45a8.83 8.83 0 0 0 8.83 8.83z" style="fill:#41479b"/><path d="m24.79 108.54 1.95 5.86 6.18.04a.83.83 0 0 1 .49 1.5l-4.97 3.68 1.86 5.88a.83.83 0 0 1-1.27.93L24 122.84l-5.03 3.6a.83.83 0 0 1-1.27-.94l1.86-5.88-4.97-3.67a.83.83 0 0 1 .49-1.5l6.18-.05 1.95-5.86a.83.83 0 0 1 1.58 0zM24.79 139.2l1.95 5.85 6.18.05a.83.83 0 0 1 .49 1.5l-4.97 3.67 1.86 5.89a.83.83 0 0 1-1.27.93l-5.03-3.6-5.03 3.6a.83.83 0 0 1-1.27-.93l1.86-5.89-4.97-3.67a.83.83 0 0 1 .49-1.5l6.18-.05 1.95-5.86a.83.83 0 0 1 1.58 0zM24.79 169.85l1.95 5.86 6.18.04a.83.83 0 0 1 .49 1.5l-4.97 3.68 1.86 5.88a.83.83 0 0 1-1.27.93L24 184.15l-5.03 3.6a.83.83 0 0 1-1.27-.93l1.86-5.9-4.97-3.66a.83.83 0 0 1 .49-1.5l6.18-.05 1.95-5.86a.83.83 0 0 1 1.58 0zM24.79 200.5l1.95 5.86 6.18.05a.83.83 0 0 1 .49 1.5l-4.97 3.67 1.86 5.89a.83.83 0 0 1-1.27.93L24 214.8l-5.03 3.6a.83.83 0 0 1-1.27-.93l1.86-5.89-4.97-3.67a.83.83 0 0 1 .49-1.5l6.18-.05 1.95-5.86a.83.83 0 0 1 1.58 0zM24.79 231.15l1.95 5.86 6.18.05a.83.83 0 0 1 .49 1.5l-4.97 3.67 1.86 5.9a.83.83 0 0 1-1.27.92l-5.03-3.6-5.03 3.6a.83.83 0 0 1-1.27-.93l1.86-5.89-4.97-3.67a.83.83 0 0 1 .49-1.5l6.18-.04 1.95-5.86a.83.83 0 0 1 1.58 0zM48.58 123.57l1.96 5.86 6.17.04a.83.83 0 0 1 .5 1.5l-4.98 3.68 1.87 5.88a.83.83 0 0 1-1.28.93l-5.03-3.59-5.02 3.6a.83.83 0 0 1-1.28-.94l1.86-5.88-4.97-3.67a.83.83 0 0 1 .5-1.5l6.17-.05 1.95-5.86a.83.83 0 0 1 1.58 0zM48.58 154.22l1.96 5.86 6.17.05a.83.83 0 0 1 .5 1.5l-4.98 3.67 1.87 5.89a.83.83 0 0 1-1.28.93l-5.03-3.6-5.02 3.6a.83.83 0 0 1-1.28-.93l1.86-5.89-4.97-3.67a.83.83 0 0 1 .5-1.5l6.17-.05 1.95-5.86a.83.83 0 0 1 1.58 0zM48.58 184.88l1.96 5.86 6.17.04a.83.83 0 0 1 .5 1.5l-4.98 3.67 1.87 5.9a.83.83 0 0 1-1.28.92l-5.03-3.6-5.02 3.6a.83.83 0 0 1-1.28-.93l1.86-5.89-4.97-3.67a.83.83 0 0 1 .5-1.5l6.17-.04 1.95-5.86a.83.83 0 0 1 1.58 0zM48.58 215.53l1.96 5.86 6.17.05a.83.83 0 0 1 .5 1.5l-4.98 3.67 1.87 5.89a.83.83 0 0 1-1.28.93l-5.03-3.6-5.02 3.6a.83.83 0 0 1-1.28-.93l1.86-5.9-4.97-3.66a.83.83 0 0 1 .5-1.5l6.17-.05 1.95-5.86a.83.83 0 0 1 1.58 0zM72.38 108.54l1.95 5.86 6.18.04a.83.83 0 0 1 .48 1.5l-4.96 3.68 1.86 5.88a.83.83 0 0 1-1.28.93l-5.02-3.59-5.03 3.6a.83.83 0 0 1-1.28-.94l1.87-5.89-4.97-3.66a.83.83 0 0 1 .49-1.5l6.17-.05 1.96-5.86a.83.83 0 0 1 1.58 0zM72.38 139.2l1.95 5.85 6.18.05a.83.83 0 0 1 .48 1.5l-4.96 3.67 1.86 5.89a.83.83 0 0 1-1.28.93l-5.02-3.6-5.03 3.6a.83.83 0 0 1-1.28-.93l1.87-5.89-4.97-3.67a.83.83 0 0 1 .49-1.5l6.17-.05 1.96-5.86a.83.83 0 0 1 1.58 0zM72.38 169.85l1.95 5.86 6.18.04a.83.83 0 0 1 .48 1.5l-4.96 3.68 1.86 5.88a.83.83 0 0 1-1.28.93l-5.02-3.59-5.03 3.6a.83.83 0 0 1-1.28-.94l1.87-5.88-4.97-3.67a.83.83 0 0 1 .49-1.5l6.17-.05 1.96-5.86a.83.83 0 0 1 1.58 0zM72.38 200.5l1.95 5.86 6.18.05a.83.83 0 0 1 .48 1.5l-4.96 3.67 1.86 5.89a.83.83 0 0 1-1.28.93l-5.02-3.6-5.03 3.6a.83.83 0 0 1-1.28-.93l1.87-5.9-4.97-3.66a.83.83 0 0 1 .49-1.5l6.17-.05 1.96-5.86a.83.83 0 0 1 1.58 0zM72.38 231.15l1.95 5.86 6.18.05a.83.83 0 0 1 .48 1.5l-4.96 3.67 1.86 5.9a.83.83 0 0 1-1.28.92l-5.02-3.6-5.03 3.6a.83.83 0 0 1-1.28-.93l1.87-5.89-4.97-3.67a.83.83 0 0 1 .49-1.5l6.17-.05 1.96-5.86a.83.83 0 0 1 1.58 0zM96.17 123.57l1.95 5.86 6.18.04a.83.83 0 0 1 .49 1.5l-4.97 3.68 1.86 5.88a.83.83 0 0 1-1.28.93l-5.02-3.59-5.03 3.6a.83.83 0 0 1-1.27-.94l1.86-5.88-4.97-3.67a.83.83 0 0 1 .49-1.5l6.18-.05 1.95-5.86a.83.83 0 0 1 1.58 0zM96.17 154.22l1.95 5.86 6.18.05a.83.83 0 0 1 .49 1.5l-4.97 3.67 1.86 5.89a.83.83 0 0 1-1.28.93l-5.02-3.6-5.03 3.6a.83.83 0 0 1-1.27-.93l1.86-5.89-4.97-3.67a.83.83 0 0 1 .49-1.5l6.18-.05 1.95-5.86a.83.83 0 0 1 1.58 0zM96.17 184.88l1.95 5.86 6.18.04a.83.83 0 0 1 .49 1.5l-4.97 3.67 1.86 5.9a.83.83 0 0 1-1.28.92l-5.02-3.6-5.03 3.6a.83.83 0 0 1-1.27-.93l1.86-5.89-4.97-3.67a.83.83 0 0 1 .49-1.5l6.18-.04 1.95-5.86a.83.83 0 0 1 1.58 0zM96.17 215.53l1.95 5.86 6.18.05a.83.83 0 0 1 .49 1.5l-4.97 3.67 1.86 5.89a.83.83 0 0 1-1.28.93l-5.02-3.6-5.03 3.6a.83.83 0 0 1-1.27-.93l1.86-5.9-4.97-3.66a.83.83 0 0 1 .49-1.5l6.18-.05 1.95-5.86a.83.83 0 0 1 1.58 0zM119.96 108.54l1.96 5.86 6.17.04a.83.83 0 0 1 .5 1.5l-4.98 3.68 1.87 5.88a.83.83 0 0 1-1.28.93l-5.03-3.59-5.02 3.6a.83.83 0 0 1-1.28-.94l1.86-5.88-4.97-3.67a.83.83 0 0 1 .5-1.5l6.17-.05 1.95-5.86a.83.83 0 0 1 1.58 0zM119.96 139.2l1.96 5.85 6.17.05a.83.83 0 0 1 .5 1.5l-4.98 3.67 1.87 5.89a.83.83 0 0 1-1.28.93l-5.03-3.6-5.02 3.6a.83.83 0 0 1-1.28-.93l1.86-5.89-4.97-3.67a.83.83 0 0 1 .5-1.5l6.17-.05 1.95-5.86a.83.83 0 0 1 1.58 0zM119.96 169.85l1.96 5.86 6.17.04a.83.83 0 0 1 .5 1.5l-4.98 3.68 1.87 5.88a.83.83 0 0 1-1.28.93l-5.03-3.6-5.02 3.6a.83.83 0 0 1-1.28-.93l1.86-5.89-4.97-3.67a.83.83 0 0 1 .5-1.5l6.17-.04 1.95-5.86a.83.83 0 0 1 1.58 0zM119.96 200.5l1.96 5.86 6.17.05a.83.83 0 0 1 .5 1.5l-4.98 3.67 1.87 5.89a.83.83 0 0 1-1.28.93l-5.03-3.6-5.02 3.6a.83.83 0 0 1-1.28-.93l1.86-5.9-4.97-3.66a.83.83 0 0 1 .5-1.5l6.17-.05 1.95-5.86a.83.83 0 0 1 1.58 0zM119.96 231.15l1.96 5.86 6.17.05a.83.83 0 0 1 .5 1.5l-4.98 3.67 1.87 5.9a.83.83 0 0 1-1.28.92l-5.03-3.6-5.02 3.6a.83.83 0 0 1-1.28-.93l1.86-5.89-4.97-3.67a.83.83 0 0 1 .5-1.5l6.17-.05 1.95-5.86a.83.83 0 0 1 1.58 0zM143.75 123.57l1.96 5.86 6.18.04a.83.83 0 0 1 .48 1.5l-4.97 3.68 1.87 5.88a.83.83 0 0 1-1.28.93l-5.02-3.59-5.03 3.6a.83.83 0 0 1-1.28-.94l1.87-5.88-4.97-3.67a.83.83 0 0 1 .49-1.5l6.17-.05 1.96-5.86a.83.83 0 0 1 1.57 0zM143.75 154.22l1.96 5.86 6.18.05a.83.83 0 0 1 .48 1.5l-4.97 3.67 1.87 5.89a.83.83 0 0 1-1.28.93l-5.02-3.6-5.03 3.6a.83.83 0 0 1-1.28-.93l1.87-5.89-4.97-3.67a.83.83 0 0 1 .49-1.5l6.17-.05 1.96-5.86a.83.83 0 0 1 1.57 0zM143.75 184.88l1.96 5.86 6.18.04a.83.83 0 0 1 .48 1.5l-4.97 3.67 1.87 5.9a.83.83 0 0 1-1.28.92l-5.02-3.6-5.03 3.6a.83.83 0 0 1-1.28-.93l1.87-5.89-4.97-3.67a.83.83 0 0 1 .49-1.5l6.17-.04 1.96-5.86a.83.83 0 0 1 1.57 0zM143.75 215.53l1.96 5.86 6.18.05a.83.83 0 0 1 .48 1.5l-4.97 3.67 1.87 5.89a.83.83 0 0 1-1.28.93l-5.02-3.6-5.03 3.6a.83.83 0 0 1-1.28-.93l1.87-5.9-4.97-3.66a.83.83 0 0 1 .49-1.5l6.17-.05 1.96-5.86a.83.83 0 0 1 1.57 0zM167.55 108.54l1.95 5.86 6.18.04a.83.83 0 0 1 .49 1.5l-4.97 3.68 1.86 5.88a.83.83 0 0 1-1.27.93l-5.03-3.59-5.02 3.6a.83.83 0 0 1-1.28-.94l1.86-5.89-4.97-3.66a.83.83 0 0 1 .49-1.5l6.18-.05 1.95-5.86a.83.83 0 0 1 1.58 0zM167.55 139.2l1.95 5.85 6.18.05a.83.83 0 0 1 .49 1.5l-4.97 3.67 1.86 5.89a.83.83 0 0 1-1.27.93l-5.03-3.6-5.02 3.6a.83.83 0 0 1-1.28-.93l1.86-5.89-4.97-3.67a.83.83 0 0 1 .49-1.5l6.18-.05 1.95-5.86a.83.83 0 0 1 1.58 0zM167.55 169.85l1.95 5.86 6.18.04a.83.83 0 0 1 .49 1.5l-4.97 3.68 1.86 5.88a.83.83 0 0 1-1.27.93l-5.03-3.59-5.02 3.6a.83.83 0 0 1-1.28-.94l1.86-5.88-4.97-3.67a.83.83 0 0 1 .49-1.5l6.18-.05 1.95-5.86a.83.83 0 0 1 1.58 0zM167.55 200.5l1.95 5.86 6.18.05a.83.83 0 0 1 .49 1.5l-4.97 3.67 1.86 5.89a.83.83 0 0 1-1.27.93l-5.03-3.6-5.02 3.6a.83.83 0 0 1-1.28-.93l1.86-5.9-4.97-3.66a.83.83 0 0 1 .49-1.5l6.18-.05 1.95-5.86a.83.83 0 0 1 1.58 0zM167.55 231.15l1.95 5.86 6.18.05a.83.83 0 0 1 .49 1.5l-4.97 3.67 1.86 5.9a.83.83 0 0 1-1.27.92l-5.03-3.6-5.02 3.6a.83.83 0 0 1-1.28-.93l1.86-5.89-4.97-3.67a.83.83 0 0 1 .49-1.5l6.18-.05 1.95-5.86a.83.83 0 0 1 1.58 0zM191.34 123.57l1.96 5.86 6.17.04a.83.83 0 0 1 .5 1.5l-4.98 3.68 1.87 5.88a.83.83 0 0 1-1.28.93l-5.03-3.59-5.02 3.6a.83.83 0 0 1-1.28-.94l1.86-5.88-4.96-3.67a.83.83 0 0 1 .48-1.5l6.18-.05 1.95-5.86a.83.83 0 0 1 1.58 0zM191.34 154.22l1.96 5.86 6.17.05a.83.83 0 0 1 .5 1.5l-4.98 3.67 1.87 5.89a.83.83 0 0 1-1.28.93l-5.03-3.6-5.02 3.6a.83.83 0 0 1-1.28-.93l1.86-5.89-4.96-3.67a.83.83 0 0 1 .48-1.5l6.18-.05 1.95-5.86a.83.83 0 0 1 1.58 0zM191.34 184.88l1.96 5.86 6.17.04a.83.83 0 0 1 .5 1.5l-4.98 3.67 1.87 5.9a.83.83 0 0 1-1.28.92l-5.03-3.6-5.02 3.6a.83.83 0 0 1-1.28-.93l1.86-5.89-4.96-3.67a.83.83 0 0 1 .48-1.5l6.18-.04 1.95-5.86a.83.83 0 0 1 1.58 0zM191.34 215.53l1.96 5.86 6.17.05a.83.83 0 0 1 .5 1.5l-4.98 3.67 1.87 5.89a.83.83 0 0 1-1.28.93l-5.03-3.6-5.02 3.6a.83.83 0 0 1-1.28-.93l1.86-5.9-4.96-3.66a.83.83 0 0 1 .48-1.5l6.18-.05 1.95-5.86a.83.83 0 0 1 1.58 0zM215.14 108.54l1.95 5.86 6.18.04a.83.83 0 0 1 .48 1.5l-4.96 3.68 1.86 5.88a.83.83 0 0 1-1.28.93l-5.02-3.59-5.03 3.6a.83.83 0 0 1-1.28-.94l1.87-5.89-4.97-3.66a.83.83 0 0 1 .49-1.5l6.17-.05 1.96-5.86a.83.83 0 0 1 1.58 0zM215.14 139.2l1.95 5.85 6.18.05a.83.83 0 0 1 .48 1.5l-4.96 3.67 1.86 5.89a.83.83 0 0 1-1.28.93l-5.02-3.6-5.03 3.6a.83.83 0 0 1-1.28-.93l1.87-5.89-4.97-3.67a.83.83 0 0 1 .49-1.5l6.17-.05 1.96-5.86a.83.83 0 0 1 1.58 0zM215.14 169.85l1.95 5.86 6.18.04a.83.83 0 0 1 .48 1.5l-4.96 3.68 1.86 5.88a.83.83 0 0 1-1.28.93l-5.02-3.59-5.03 3.6a.83.83 0 0 1-1.28-.94l1.87-5.88-4.97-3.67a.83.83 0 0 1 .49-1.5l6.17-.05 1.96-5.86a.83.83 0 0 1 1.58 0zM215.14 200.5l1.95 5.86 6.18.05a.83.83 0 0 1 .48 1.5l-4.96 3.67 1.86 5.89a.83.83 0 0 1-1.28.93l-5.02-3.6-5.03 3.6a.83.83 0 0 1-1.28-.93l1.87-5.9-4.97-3.66a.83.83 0 0 1 .49-1.5l6.17-.05 1.96-5.86a.83.83 0 0 1 1.58 0zM215.14 231.15l1.95 5.86 6.18.05a.83.83 0 0 1 .48 1.5l-4.96 3.67 1.86 5.9a.83.83 0 0 1-1.28.92l-5.02-3.6-5.03 3.6a.83.83 0 0 1-1.28-.93l1.87-5.89-4.97-3.67a.83.83 0 0 1 .49-1.5l6.17-.05 1.96-5.86a.83.83 0 0 1 1.58 0z" style="fill:#f5f5f5"/></svg>